<?xml version="1.0" encoding="utf-8"?>
<!DOCTYPE svg PUBLIC "-//W3C//DTD SVG 1.1//EN" "http://www.w3.org/Graphics/SVG/1.1/DTD/svg11.dtd">
<svg version="1.1" id="Layer_1" xmlns="http://www.w3.org/2000/svg" xmlns:xlink="http://www.w3.org/1999/xlink" x="0px" y="0px"
	 width="145.9px" height="38px" viewBox="0 0 145.9 38" style="enable-background:new 0 0 145.9 38;" xml:space="preserve">
<style type="text/css">
	.st0{fill:#FFFFFF;}
</style>
<title>syneto</title>
<path class="st0" d="M0,30.7v-5.8c1.4,1,3,1.9,4.6,2.6c1.3,0.6,2.6,0.9,4,1c1,0,2-0.3,2.9-0.8c0.7-0.4,1.2-1.2,1.2-2
	c0-0.7-0.2-1.5-0.8-2c-1-0.9-2.2-1.6-3.4-2.2C5,19.6,2.8,18,1.7,16.6c-1-1.3-1.6-2.8-1.6-4.5c0-2,0.9-3.9,2.4-5.1
	c1.8-1.4,4-2.1,6.2-2c2.9,0.1,5.7,0.9,8.2,2.3v5.3c-3.2-1.9-5.8-2.9-7.8-2.9c-0.9,0-1.8,0.2-2.5,0.7c-0.6,0.4-1,1-1,1.8
	c0,0.7,0.3,1.3,0.9,1.8c0.9,0.8,1.9,1.5,3,2.1l2,1c4.5,2.6,6.8,5.4,6.8,8.5c0.1,2.2-0.9,4.2-2.6,5.5c-1.9,1.5-4.3,2.2-6.7,2.1
	c-1.4,0-2.9-0.1-4.3-0.5C3.1,32.1,1.5,31.5,0,30.7z M51.4,5.6V9c2-2.5,5-3.9,8.1-4c1.7,0,3.3,0.4,4.7,1.3c1.4,0.8,2.6,2.1,3.3,3.6
	c0.8,1.5,1.1,3.9,1.1,7.2v15.5h-5.3V17.2c0-2.8-0.4-4.7-1.3-5.9c-1-1.3-2.6-1.9-4.2-1.8c-2.5,0-4.7,1.3-6.4,3.8v19.3h-5.5v-27
	L51.4,5.6L51.4,5.6z M94.9,19.6h-19c0,2.3,1,4.5,2.6,6.2c1.7,1.5,3.9,2.3,6.2,2.2c3.5,0,7-1.2,9.8-3.3V30c-1.5,1-3.2,1.8-4.9,2.3
	c-1.9,0.5-3.8,0.7-5.7,0.7c-2.5,0.1-5.1-0.5-7.2-1.9c-1.9-1.3-3.4-3-4.4-5c-1.1-2.2-1.7-4.7-1.7-7.2c-0.1-3.7,1.1-7.2,3.5-10
	c2.3-2.6,5.6-4,9.1-3.9c3.3-0.1,6.4,1.3,8.6,3.8c2.1,2.5,3.2,5.9,3.2,10.1L94.9,19.6L94.9,19.6L94.9,19.6z M76,16.4h13.6
	c0-1.8-0.7-3.6-1.9-4.9c-1.2-1.2-2.9-1.8-4.5-1.7c-1.7-0.1-3.4,0.6-4.7,1.7C77.1,12.8,76.2,14.5,76,16.4z M108.7,28.3
	c-2.6,0-3.8-1.5-3.8-4.6V0l-5.6,5.5l-4.4,4.3v0.5h4.7v12c-0.1,1.7,0,3.4,0.3,5c0.2,0.7,0.4,1.5,0.8,2.1c0.3,0.5,0.8,1,1.3,1.5
	c1.7,1.4,3.9,2.2,6.1,2.1c2.4,0,4.7-0.6,6.7-1.7v-5C112.9,27.5,110.8,28.2,108.7,28.3L108.7,28.3z M141.8,9.5c-2.6-2.6-6.2-4-9.9-4
	l0,0h-23.6v4.8h12.1c-2.2,2.5-3.4,5.7-3.3,9c-0.1,3.7,1.4,7.3,4.1,9.8c2.7,2.6,6.4,4,10.2,3.9c3.8,0.1,7.6-1.3,10.4-3.9
	c2.7-2.5,4.2-6,4.1-9.7C146,15.7,144.5,12.1,141.8,9.5z M137.9,25.6c-1.7,1.7-4.1,2.6-6.4,2.5c-2.4,0.1-4.7-0.8-6.5-2.5
	c-1.7-1.7-2.6-4-2.5-6.3c-0.1-2.4,0.8-4.7,2.5-6.4s3.9-2.6,6.3-2.5l0,0c2.4-0.1,4.8,0.8,6.6,2.5c1.7,1.7,2.7,4,2.6,6.4
	C140.5,21.6,139.6,23.9,137.9,25.6z"/>
<polygon class="st0" points="34,32.5 28.6,38 28.6,20.4 18.6,5.5 24.2,5.5 31.3,16.4 38.4,5.5 44,5.5 34,20.4 "/>
</svg>
