<?xml version="1.0" encoding="UTF-8"?>
<svg width="36px" height="26px" viewBox="0 0 36 26" version="1.1" xmlns="http://www.w3.org/2000/svg" xmlns:xlink="http://www.w3.org/1999/xlink">
    <!-- Generator: sketchtool 62 (101010) - https://sketch.com -->
    <title>2B244322-CFD9-47D2-AF70-2382B0C386EB</title>
    <desc>Created with sketchtool.</desc>
    <g id="Views---Ideation" stroke="none" stroke-width="1" fill="none" fill-rule="evenodd">
        <g id="Version-Comparison---V1" transform="translate(-24.000000, -11.000000)" fill="#FFFFFF" fill-rule="nonzero">
            <path d="M56.0704595,14.7811292 C53.5814089,12.3233952 50.1350311,11 46.5929207,11 L46.5929207,11 L24,11 L24,15.537355 L35.5836585,15.537355 C33.4775388,17.9005607 32.3287462,20.9254641 32.4244789,24.0448956 C32.3287462,27.5424401 33.7647369,30.9454564 36.3495202,33.3086621 C38.9343035,35.7663961 42.476414,37.0897913 46.1142571,36.995263 C49.7521003,37.0897913 53.3899435,35.7663961 56.0704595,33.3086621 C58.6552428,30.9454564 60.0912335,27.6369683 59.9955008,24.1394239 C60.0912335,20.6418794 58.6552428,17.2388631 56.0704595,14.7811292 Z M52.3368836,30.0001741 C50.7094274,31.607154 48.4118423,32.457908 46.2099898,32.3633798 C43.9124047,32.457908 41.7105522,31.607154 39.9873634,30.0001741 C38.3599072,28.3931942 37.4983128,26.2190449 37.5940455,24.0448956 C37.4983128,21.7762181 38.3599072,19.6020689 39.9873634,17.995089 C41.6148195,16.3881091 43.7209393,15.537355 46.0185244,15.6318832 L46.0185244,15.6318832 C48.3161096,15.537355 50.6136947,16.3881091 52.3368836,17.995089 C53.9643397,19.6020689 54.9216669,21.7762181 54.8259342,24.0448956 C54.8259342,26.2190449 53.9643397,28.3931942 52.3368836,30.0001741 Z" id="logo-small"></path>
        </g>
    </g>
</svg>