<?xml version="1.0" encoding="utf-8"?>
<!DOCTYPE svg PUBLIC "-//W3C//DTD SVG 1.1//EN" "http://www.w3.org/Graphics/SVG/1.1/DTD/svg11.dtd">
<svg version="1.1" id="Layer_1" xmlns="http://www.w3.org/2000/svg" xmlns:xlink="http://www.w3.org/1999/xlink" x="0px" y="0px"
	 width="145.9px" height="38px" viewBox="0 0 145.9 38" style="enable-background:new 0 0 145.9 38;" xml:space="preserve">
<style type="text/css">
	.st0{fill:#FFFFFF;}
</style>
<title>syneto</title>
<path class="st0" d="M141.8,9.5c-2.6-2.6-6.2-4-9.9-4l0,0h-23.6v4.8h12.1c-2.2,2.5-3.4,5.7-3.3,9c-0.1,3.7,1.4,7.3,4.1,9.8
	c2.7,2.6,6.4,4,10.2,3.9c3.8,0.1,7.6-1.3,10.4-3.9c2.7-2.5,4.2-6,4.1-9.7C146,15.7,144.5,12.1,141.8,9.5z M137.9,25.6
	c-1.7,1.7-4.1,2.6-6.4,2.5c-2.4,0.1-4.7-0.8-6.5-2.5c-1.7-1.7-2.6-4-2.5-6.3c-0.1-2.4,0.8-4.7,2.5-6.4s3.9-2.6,6.3-2.5l0,0
	c2.4-0.1,4.8,0.8,6.6,2.5c1.7,1.7,2.7,4,2.6,6.4C140.5,21.6,139.6,23.9,137.9,25.6z"/>
</svg>
